<svg width="16" height="17" viewBox="0 0 16 17" fill="none" xmlns="http://www.w3.org/2000/svg">
<path d="M6.66602 9.09641C6.95232 9.47916 7.31759 9.79587 7.73705 10.025C8.15651 10.2542 8.62035 10.3905 9.09712 10.4246C9.57388 10.4588 10.0524 10.39 10.5002 10.2229C10.9481 10.0559 11.3548 9.79446 11.6927 9.45641L13.6927 7.45641C14.2999 6.82774 14.6359 5.98573 14.6283 5.11174C14.6207 4.23775 14.2701 3.40171 13.6521 2.78368C13.0341 2.16566 12.198 1.81509 11.324 1.8075C10.45 1.7999 9.60802 2.13589 8.97935 2.74308L7.83268 3.88308" stroke="#707070" stroke-width="1.33333" stroke-linecap="round" stroke-linejoin="round"/>
<path d="M9.33347 7.7631C9.04716 7.38035 8.68189 7.06364 8.26243 6.83447C7.84297 6.6053 7.37913 6.46902 6.90237 6.43488C6.4256 6.40073 5.94707 6.46952 5.49924 6.63658C5.0514 6.80364 4.64472 7.06505 4.3068 7.4031L2.3068 9.4031C1.69961 10.0318 1.36363 10.8738 1.37122 11.7478C1.37881 12.6218 1.72938 13.4578 2.3474 14.0758C2.96543 14.6939 3.80147 15.0444 4.67546 15.052C5.54945 15.0596 6.39146 14.7236 7.02013 14.1164L8.16013 12.9764" stroke="#707070" stroke-width="1.33333" stroke-linecap="round" stroke-linejoin="round"/>
</svg>
